<svg xmlns="http://www.w3.org/2000/svg" width="122.415" height="78.333" viewBox="0 0 122.415 78.333">
  <g id="Сгруппировать_12" data-name="Сгруппировать 12" transform="translate(-4725.529 -1333.535)">
    <path id="Контур_5" data-name="Контур 5" d="M4846.151,1408.282h-11.623v-11.746h9.707a1.793,1.793,0,0,0,1.76-2.134l-11.5-59.415a1.793,1.793,0,0,0-3.52,0l-11.5,59.415a1.793,1.793,0,0,0,1.76,2.134h9.707v11.746h-15.58v-3.956c0-.042,0-.083-.006-.124h3.963a1.793,1.793,0,0,0,0-3.586h-19.29v-4.08h11.623a3.714,3.714,0,0,0,3.71-3.71v-3.833a3.714,3.714,0,0,0-3.71-3.71h-11.623v-21.206a1.793,1.793,0,1,0-3.586,0v5.254l-2.689-2.688a1.793,1.793,0,0,0-2.536,2.535l5.225,5.225v3.128a19.246,19.246,0,1,1,8.808-1.228,1.793,1.793,0,0,0,1.305,3.341,22.887,22.887,0,1,0-10.113,1.49v4.15h-26.956a3.714,3.714,0,0,0-3.709,3.71v3.833a3.713,3.713,0,0,0,3.709,3.709h26.956v4.08h-34.622a1.794,1.794,0,0,0,0,3.587h3.957v4.08h-11.747V1394.01a19.025,19.025,0,0,0,0-33.033v-8.523h2.04a1.792,1.792,0,0,0,1.769-1.5l1.917-11.5a1.793,1.793,0,0,0-1.769-2.088h-11.5a1.793,1.793,0,0,0-1.769,2.088l1.917,11.5a1.792,1.792,0,0,0,1.769,1.5h2.04v6.928a19.043,19.043,0,0,0-14.608,35.037,1.793,1.793,0,0,0,1.647-3.186,15.457,15.457,0,0,1,12.961-28.034v28.588a15.335,15.335,0,0,1-4.08,1.055V1379.41a1.794,1.794,0,0,0-3.587,0v5.254l-2.688-2.689a1.793,1.793,0,0,0-2.536,2.536l5.225,5.224v18.547H4736.9a1.793,1.793,0,0,0,0,3.586h109.246a1.793,1.793,0,0,0,0-3.586Zm-22.742-15.332,9.326-48.185,9.326,48.185h-7.533v-5.874a1.793,1.793,0,1,0-3.586,0v5.874Zm-54.045-.124v-3.833a.124.124,0,0,1,.123-.124h42.165a.124.124,0,0,1,.124.124v3.833a.123.123,0,0,1-.124.123h-42.165A.122.122,0,0,1,4769.364,1392.826Zm-20.759-51.871h7.266l-1.319,7.913h-4.628Zm20.759,63.247h42.418c0,.041-.006.082-.006.124v3.956h-42.412Zm-15.333-38.919a15.429,15.429,0,0,1,0,24.421Zm-7.666,31.166a18.939,18.939,0,0,0,4.08-.844v12.677h-4.08Z" fill="#c18b52"/>
  </g>
</svg>
