<svg xmlns="http://www.w3.org/2000/svg" width="87.687" height="80.209" viewBox="0 0 87.687 80.209">
  <g id="Сгруппировать_17" data-name="Сгруппировать 17" transform="translate(-5822.143 -1332.597)">
    <path id="Контур_11" data-name="Контур 11" d="M5908.384,1347.426a1.651,1.651,0,0,0-1.843,1.433l-3.488,27.905H5890.18l-1.7-9.643a1.651,1.651,0,0,0-1.626-1.365h-41.642a1.652,1.652,0,0,0-1.625,1.361l-1.723,9.646h-12.942l-3.488-27.9a1.651,1.651,0,0,0-3.277.41l3.669,29.351a1.651,1.651,0,0,0,1.638,1.446h2.943l-3.471,20.825a1.651,1.651,0,1,0,3.257.542l3.562-21.367h7.521l-5.027,28.143a1.653,1.653,0,0,0,.663,1.633l.039.028a14.732,14.732,0,0,0,16.364.535,24.443,24.443,0,0,0,20.936-.041,21.485,21.485,0,0,0,9.576,2.439q.175,0,.352,0a21.475,21.475,0,0,0,10.1-2.532l.595-.318a1.652,1.652,0,0,0,.847-1.743l-4.962-28.147h7.458l3.561,21.367a1.651,1.651,0,1,0,3.257-.542l-3.471-20.825h2.943a1.65,1.65,0,0,0,1.638-1.446l3.669-29.351A1.651,1.651,0,0,0,5908.384,1347.426Zm-32.446,60.092V1386.3a1.651,1.651,0,1,0-3.3,0v21.168a21.132,21.132,0,0,1-17.794,0v-14.747a1.651,1.651,0,1,0-3.3,0v14.894a11.428,11.428,0,0,1-11.85.1l6.9-38.66h38.875l6.8,38.542A17.989,17.989,0,0,1,5875.938,1407.518Z" fill="#c18b52"/>
    <path id="Контур_12" data-name="Контур 12" d="M5854.063,1363.629h22.013a1.651,1.651,0,0,0,1.651-1.651,12.674,12.674,0,0,0-11.007-12.546v-1.542a1.651,1.651,0,0,0-3.3,0v1.542a12.673,12.673,0,0,0-11.006,12.546A1.651,1.651,0,0,0,5854.063,1363.629Zm11.006-11.007a9.372,9.372,0,0,1,9.209,7.705H5855.86A9.374,9.374,0,0,1,5865.069,1352.622Z" fill="#c18b52"/>
    <path id="Контур_13" data-name="Контур 13" d="M5873.216,1345.622a1.652,1.652,0,0,0,1.651-1.651v-4.219a1.651,1.651,0,0,0-3.3,0v4.219A1.652,1.652,0,0,0,5873.216,1345.622Z" fill="#c18b52"/>
    <path id="Контур_14" data-name="Контур 14" d="M5865.089,1342.5a1.651,1.651,0,0,0,1.651-1.651v-6.6a1.652,1.652,0,0,0-3.3,0v6.6A1.651,1.651,0,0,0,5865.089,1342.5Z" fill="#c18b52"/>
    <path id="Контур_15" data-name="Контур 15" d="M5856.961,1346.906a1.651,1.651,0,0,0,1.651-1.651v-3.485a1.651,1.651,0,1,0-3.3,0v3.485A1.652,1.652,0,0,0,5856.961,1346.906Z" fill="#c18b52"/>
  </g>
</svg>
