<svg xmlns="http://www.w3.org/2000/svg" width="87.227" height="69.211" viewBox="0 0 87.227 69.211">
  <g id="Сгруппировать_14" data-name="Сгруппировать 14" transform="translate(-5102.873 -1338.096)">
    <g id="Сгруппировать_13" data-name="Сгруппировать 13">
      <path id="Контур_6" data-name="Контур 6" d="M5122.261,1362.767a1.7,1.7,0,0,0-1.184,2.929,5.863,5.863,0,0,0,8.081,0,1.7,1.7,0,1,0-2.368-2.45,2.427,2.427,0,0,1-3.345,0,1.7,1.7,0,0,0-1.184-.479Z" fill="#c18b52"/>
      <path id="Контур_7" data-name="Контур 7" d="M5190.05,1372.034a1.7,1.7,0,0,0-1.119-2.027c-4.036-1.333-8.846-4.339-8.846-11.089v-3.573c0-5.511-1.263-9.824-3.753-12.819a13.6,13.6,0,0,0-20.074-.017c-2.577,3.018-3.939,7.457-3.939,12.836v3.573a10.407,10.407,0,0,1-4.366,8.839,10.9,10.9,0,0,0-12.338,6.848c-.455-.128-2.838-.77-3.542-.976V1372.5a14.618,14.618,0,0,0,7.649-12.839v-6.766a14.6,14.6,0,1,0-29.21,0v6.766a14.614,14.614,0,0,0,7.649,12.837v1.135c-.7.206-1.434.4-2.191.608-5.77,1.556-12.952,3.491-13.1,12.3v14.931a1.7,1.7,0,0,0,1.7,1.7h23.037v2.435a1.7,1.7,0,0,0,1.7,1.7h8.842a1.7,1.7,0,1,0,0-3.407h-7.138v-1.021a9.932,9.932,0,0,1,.483-3.117c1.071-3.07,3.845-3.888,7.622-5l.536-.159a6.416,6.416,0,0,0,6.021,4.216,6.493,6.493,0,0,0,6.3-4.212l.523.155c4.822,1.422,8.008,2.361,8.1,8.119v1.021h-7.153a1.7,1.7,0,0,0,0,3.407h8.857a1.7,1.7,0,0,0,1.7-1.7v-2.435h22.728a1.7,1.7,0,0,0,1.7-1.7v-14.932a10.433,10.433,0,0,0-3.08-7.751c2.453-1.15,3.8-3.2,4.682-6.748ZM5166.2,1341.5a9.262,9.262,0,0,1,7.51,3.2c1.772,2.132,2.755,5.25,2.933,9.278-3.156.547-6.87.1-8.923-3.955a1.721,1.721,0,0,0-3.041,0c-2.052,4.059-5.765,4.5-8.919,3.956.394-7.844,4.232-12.48,10.44-12.48Zm-10.476,15.921a15.326,15.326,0,0,0,2.114.152,11.313,11.313,0,0,1,16.723,0,15.3,15.3,0,0,0,2.114-.152v1.495a10.475,10.475,0,1,1-20.951,0v-1.495Zm14.026,14.915v2.545a3.548,3.548,0,0,1-7.1,0v-2.543a13.854,13.854,0,0,0,7.1,0Zm-15.629-6.589a13.991,13.991,0,0,0,5.126,5.178v2.7c-.709.207-1.443.405-2.2.611q-.527.141-1.063.288a10.992,10.992,0,0,0-4.441-5.351A13.537,13.537,0,0,0,5154.123,1365.75Zm-15.25,9.879a7.492,7.492,0,0,1,14.3,1.408,17.061,17.061,0,0,0-14.717,0,7.405,7.405,0,0,1,.416-1.409Zm-24.953-22.738a11.2,11.2,0,1,1,22.4,0v1.763c-4.479.15-10.123-.383-14.285-3.231a1.7,1.7,0,0,0-2.318.374c-1.44,1.893-3.249,2.362-5.792,2.665v-1.571Zm0,6.766v-1.766c2.74-.306,5.321-.807,7.464-2.86,4.662,2.639,10.357,3.172,14.931,3.032v1.594a11.2,11.2,0,0,1-22.4,0Zm14.746,14.165v1.062a3.548,3.548,0,0,1-7.1,0v-1.062a14.594,14.594,0,0,0,7.1,0Zm10.609,17.338c-.373.114-.746.224-1.114.332-4.205,1.24-8.893,2.622-10.2,8.269H5115.4v-6.892a1.7,1.7,0,1,0-3.408,0v6.892h-5.71v-13.184c.1-5.81,4.065-7.3,10.576-9.05.549-.148,1.106-.3,1.66-.456a6.954,6.954,0,0,0,13.2,0c.555.156,2.712.742,3.209.883q-.012.246-.012.495v2.409a10.889,10.889,0,0,0,4.36,8.715Zm9.673,1.244v.006a3.136,3.136,0,0,1-6.266,0V1391.3a10.475,10.475,0,0,0,1.273.3,10.862,10.862,0,0,0,1.862.16,10.635,10.635,0,0,0,1.545-.111,10.473,10.473,0,0,0,1.586-.347Zm.907-5.233a7.492,7.492,0,0,1-11.527-6.148,13.7,13.7,0,0,1,14.98,0A7.5,7.5,0,0,1,5149.855,1387.171Zm35.186,12.59h-5.71v-6.892a1.7,1.7,0,1,0-3.407,0v6.892h-12.258c-1.305-5.647-5.992-7.029-10.2-8.269-.368-.108-.741-.218-1.114-.332v-1.581a10.9,10.9,0,0,0,4.364-8.722v-2.38c0-.206-.006-.41-.018-.613.412-.114.824-.225,1.229-.334.552-.149,1.113-.3,1.672-.459a6.955,6.955,0,0,0,13.2,0c.554.156,1.111.307,1.66.455,6.511,1.755,10.474,3.241,10.576,9.049v13.185Zm-3.355-23.418a39.2,39.2,0,0,0-6.335-2.106c-.757-.205-1.488-.4-2.192-.608v-2.7a13.985,13.985,0,0,0,5.113-5.161,15.68,15.68,0,0,0,8.051,6.9C5185.507,1375.041,5184.359,1375.892,5181.686,1376.343Z" fill="#c18b52"/>
      <path id="Контур_8" data-name="Контур 8" d="M5145.808,1403.9a1.7,1.7,0,1,0,0,3.407h.01a1.7,1.7,0,1,0-.01-3.407Z" fill="#c18b52"/>
    </g>
  </g>
</svg>
