<svg xmlns="http://www.w3.org/2000/svg" width="190.976" height="77.387" viewBox="0 0 190.976 77.387">
  <g id="Сгруппировать_61" data-name="Сгруппировать 61" transform="translate(-5231.879 -4871.905)">
    <path id="Контур_30" data-name="Контур 30" d="M5260.254,4876.963a38.876,38.876,0,0,0-10.7,7.561,44.441,44.441,0,0,0-8.625,12.233,33.178,33.178,0,0,0-3.607,14.814,21.423,21.423,0,0,0,1.992,8.72,16.493,16.493,0,0,0,6.163,7.24,18.433,18.433,0,0,0,10.361,2.745,29.4,29.4,0,0,0,6.2-.659,9.568,9.568,0,0,1-3.824-1.887q-.56.043-1.12.043-5.993,0-8.881-4.32a17.523,17.523,0,0,1-2.892-9.93,49.725,49.725,0,0,1,10.347-28.339,25.23,25.23,0,0,1,7.508-6.406,16.739,16.739,0,0,1,7.752-1.95q5.832,0,8.72,4.13a16.128,16.128,0,0,1,2.892,9.488,44.013,44.013,0,0,1-3.216,15.662,45.431,45.431,0,0,1-7.926,13.807,25.48,25.48,0,0,1-7.226,6.082q-.573.292-1.151.539a13.189,13.189,0,0,0,5.33.988,35.277,35.277,0,0,0,17.19-16.639q4.986-9.447,4.993-18.058a20.265,20.265,0,0,0-2.329-9.365,15.973,15.973,0,0,0-6.431-6.823,18.854,18.854,0,0,0-9.434-2.314,28.315,28.315,0,0,0-12.083,2.638" fill="#d2d1d1"/>
    <path id="Контур_31" data-name="Контур 31" d="M5396.5,4914.943c0-3.208-1.278-4.812-3.8-4.812-1.528,0-3.608,1.031-6.224,3.074q-1.45,1.164-2.319,2.02c-1.15.892-3.323,2.969-3.869,3.479a44.259,44.259,0,0,1-11.3,8.134c-3.628,1.661-4.067.65-1.356-3.036l11.476-13.1h-6.874l-6.262,7.445a31.927,31.927,0,0,1-13.328,9.28l13.422-16.725h-7.2l-6,6.148a71.392,71.392,0,0,1-10.119,7.828q-6.789,4.668-7.276,1.967c-.343-1.795.917-3.762,3.743-5.939,2.845-2.157,3.265-3.3,1.3-3.437a5.014,5.014,0,0,0-3.673,1.6c-2.476,1.85-4.975,3.561-7.307,5.106-3.134,2.078-4.964,3.132-5.479,3.132a.309.309,0,0,1-.345-.229,6.2,6.2,0,0,1,1.127-1.738l11.247-14.434h-7.218a148.626,148.626,0,0,1-9.795,11.246q-5.642,5.813-7.16,5.823c-.516,0-.783-.229-.783-.686a3.874,3.874,0,0,1,.783-1.51l11.017-14.873h-7.944l-5.886,7.7c-.041.037-.084.076-.127.117-3.962,3.71-9.054,6.1-12.68,7.766q-5.415,2.485-.267-3.9l9.776-11.685h-7.2l-6,6.148a54.057,54.057,0,0,1-6.918,6.168c-5.595,4.035-14.7,6.1-21.449,4.561-2.793-.639-4.71-2.029-4.537-3.476.1-.8.812-1.481,1.921-1.962l-.016-.094c-2.2.158-4.187.91-3.99,2.912.212,2.15,3.025,4.092,7.036,4.63,7.081.951,15.693.213,21.578-3.758,1.211-.818,2.494-1.764,3.855-2.814-1.451,4.468-.374,7.133,3.131,6.7,3.679-.453,8.153-2.5,12.516-5.888a6.021,6.021,0,0,0-.372,1.974c0,2.922,1.566,4.372,4.717,4.372,2.119,0,4.715-1.412,7.771-4.258.152,2.846,1.336,4.258,3.57,4.258,2.513,0,6.559-1.893,11.805-5.8a5.03,5.03,0,0,0,.568,4.555q4.527,3.349,17.911-7.544c-2.5,2.388-3.628,4.22-3.361,5.538.038,2.158,1.011,3.246,2.96,3.246,2.31.248,5.938-1.489,10.845-5.213-1.031,3.552.21,5.308,3.762,5.308,7-1.447,14.538-8.894,19.834-13.89,2.546-2.085,4.482-3.232,5.829-3.409l-14.092,16.632h7.542l6.054-6.989a38.935,38.935,0,0,1,7.159-6.283,23.443,23.443,0,0,1,6.474-3.456,73.491,73.491,0,0,1-4.354,5.939c-2.425,3.055-3.628,5.518-3.628,7.39a3.78,3.78,0,0,0,1.241,2.731,4.315,4.315,0,0,0,3.113,1.24q4.926,0,20.813-13.882c.63-.534.954-.973.954-1.355,0-.439-.286-.668-.84-.668-.305,0-.9.381-1.795,1.126q-14.262,11.8-17.8,11.819c-.515,0-.782-.19-.782-.572a3.447,3.447,0,0,1,.782-1.509l7.79-10.2a3.834,3.834,0,0,0,.936-2.291c0-1.681-1.146-2.521-3.456-2.521-2.978,0-6.721,1.6-11.19,4.812" fill="#d2d1d1"/>
    <path id="Контур_32" data-name="Контур 32" d="M5241.571,4911.414c5.839,8.323,12.968.654,19.58,9.6-.618-4.1-2.544-7.9-7.36-9.9-3.256-1.354-5.219-.572-9.718-1.942a12.068,12.068,0,0,1-4.236-2.244c.231.5,1.5,3.987,1.734,4.484m1.03-8.118a21.387,21.387,0,0,1,2.13.326c5.364.937,9.173,2.661,11.861,5.417,2.047,2.1,3.339,4.838,4.79,8.052q.312,1.132.623,2.265a31.655,31.655,0,0,1,.725,4.215c2.926-7.047,2-12.655-3.647-18.974-4.8-4.763-8.961-6.929-13.876-8.077-5.694-1.331-7.363-2.742-13.237-7.552,1.927,5.445,2.911,13.789,10.631,14.328m-10.6-29.641c-1.072,10.035,5.394,15.258,10.9,16.426a27.551,27.551,0,0,1,10.585,4.2c6.631,4.224,11.006,10.453,12.333,17.017a23.077,23.077,0,0,1-1.089,12.25l1-1.176c5.9-10,4.728-20.833-2.19-29.926-8.924-11.732-26.147-8.924-31.293-20.538-.1.582-.185,1.168-.248,1.75" fill="#d2d1d1"/>
    <path id="Контур_33" data-name="Контур 33" d="M5315.5,4943.951a8.435,8.435,0,0,0-.981.529,2.5,2.5,0,0,0-.878,1.155,2.047,2.047,0,0,0-.109.665,2.324,2.324,0,0,0,2.3,2.291,2.413,2.413,0,0,0,1.02-.225,3.894,3.894,0,0,0,1.116-.759c-.033-.055-.089-.157-.161-.3l-1.019-1.984a6.189,6.189,0,0,0-.356-.6,2.12,2.12,0,0,0-.366-.407,2.906,2.906,0,0,0-.568-.366m.266-3.345a1.181,1.181,0,0,0-.886.373,1.477,1.477,0,0,0,0,1.931,1.2,1.2,0,0,0,1.756,0,1.3,1.3,0,0,0,.368-.943,1.37,1.37,0,0,0-.361-.982,1.166,1.166,0,0,0-.882-.379m2.538,2.855h3.015v.556h-.361a1.649,1.649,0,0,0-.529.055.547.547,0,0,0-.238.19.9.9,0,0,0-.15.411,6.831,6.831,0,0,1-.974,2.528,2.714,2.714,0,0,0,.432.736,2.029,2.029,0,0,0,.529.513.959.959,0,0,0,.485.128.779.779,0,0,0,.546-.2.62.62,0,0,0,.22-.474.646.646,0,0,0-.084-.355,1.021,1.021,0,0,0-.378-.269.8.8,0,0,1-.327-.265.581.581,0,0,1-.1-.327.56.56,0,0,1,.166-.419.587.587,0,0,1,.434-.161,1.021,1.021,0,0,1,.795.4,1.5,1.5,0,0,1,.337,1,1.686,1.686,0,0,1-.548,1.254,1.831,1.831,0,0,1-1.322.533,2.015,2.015,0,0,1-1-.265,3.056,3.056,0,0,1-.941-.9,5.111,5.111,0,0,1-1.163.821,3.867,3.867,0,0,1-3.253-.034,2.847,2.847,0,0,1-1.15-1.014,2.556,2.556,0,0,1-.4-1.393,2.492,2.492,0,0,1,.339-1.287,3.172,3.172,0,0,1,1.014-1.031,5.01,5.01,0,0,1,1.225-.56,2.925,2.925,0,0,1-.813-.465,1.7,1.7,0,0,1-.427-.566,1.626,1.626,0,0,1-.148-.7,1.666,1.666,0,0,1,.6-1.306,2.391,2.391,0,0,1,1.633-.6,2.246,2.246,0,0,1,1.554.548,1.68,1.68,0,0,1,.614,1.294,1.8,1.8,0,0,1-.251.932,2.034,2.034,0,0,1-.705.705,2.34,2.34,0,0,1-.749.3,3.1,3.1,0,0,1,.95.474,4.091,4.091,0,0,1,.8.852,7.836,7.836,0,0,1,.8,1.425,5.7,5.7,0,0,0,.626-2.071.383.383,0,0,0-.141-.334,1.057,1.057,0,0,0-.568-.1h-.389Zm72.308-3.318h3.477v.542h-.238a1.631,1.631,0,0,0-.593.077.463.463,0,0,0-.249.274,2.023,2.023,0,0,0-.057.6v2.512h4.68V4941.7a3.018,3.018,0,0,0-.033-.6.487.487,0,0,0-.22-.312,1.049,1.049,0,0,0-.518-.1h-.353v-.542h3.438v.542h-.31a1.125,1.125,0,0,0-.512.082.437.437,0,0,0-.213.218,1.759,1.759,0,0,0-.063.6v6.135a2.03,2.03,0,0,0,.064.65.388.388,0,0,0,.258.2,4.056,4.056,0,0,0,.776.039v.543h-3.438v-.543h.252a2.052,2.052,0,0,0,.633-.063.32.32,0,0,0,.2-.205,3.045,3.045,0,0,0,.04-.683v-2.8h-4.68v2.869a1.878,1.878,0,0,0,.068.652.369.369,0,0,0,.262.194,4.583,4.583,0,0,0,.807.039v.543h-3.477v-.543h.221a2.084,2.084,0,0,0,.628-.054.4.4,0,0,0,.2-.212,1.4,1.4,0,0,0,.076-.553v-6.2a1.666,1.666,0,0,0-.069-.581.469.469,0,0,0-.212-.241,1.093,1.093,0,0,0-.481-.077h-.362Zm-6.782,5.037h2.778l-1.386-3.874Zm1.121-5.037h1.078l2.789,7.53a1.871,1.871,0,0,0,.417.749.83.83,0,0,0,.564.182h.143v.543h-3.2v-.543c.1-.008.2-.013.3-.013a.842.842,0,0,0,.408-.064.36.36,0,0,0,.187-.308,2.952,2.952,0,0,0-.181-.663l-.608-1.741H5383.6l-.7,1.946a1.5,1.5,0,0,0-.108.419.388.388,0,0,0,.065.225.409.409,0,0,0,.185.145,1.037,1.037,0,0,0,.375.048c.117,0,.212,0,.285.006v.543h-2.693v-.543a1.4,1.4,0,0,0,.539-.074.722.722,0,0,0,.287-.238,3.272,3.272,0,0,0,.324-.692Zm-9.205.7v3.781h1.391a4.011,4.011,0,0,0,1.476-.187,1.551,1.551,0,0,0,.7-.65,2.05,2.05,0,0,0,.278-1.082,1.91,1.91,0,0,0-.324-1.135,1.59,1.59,0,0,0-.879-.617,6.663,6.663,0,0,0-1.511-.11Zm-2.353-.7h3.559a7.973,7.973,0,0,1,2.235.208,2.712,2.712,0,0,1,1.269.841,2.289,2.289,0,0,1,.5,1.516,2.387,2.387,0,0,1-.382,1.355,2.611,2.611,0,0,1-1.114.974,5.473,5.473,0,0,1-2.065.289h-1.649v2.287a2.2,2.2,0,0,0,.058.655.505.505,0,0,0,.211.262,1.305,1.305,0,0,0,.547.074h.309v.543h-3.478v-.543h.212a1.622,1.622,0,0,0,.6-.074.457.457,0,0,0,.234-.229,1.582,1.582,0,0,0,.074-.595v-6.162a1.568,1.568,0,0,0-.068-.575.418.418,0,0,0-.225-.215,1.776,1.776,0,0,0-.619-.069h-.212Zm-5.758.555a3.17,3.17,0,0,0-1.736.461,3.255,3.255,0,0,0-1.164,1.353,5.03,5.03,0,0,0-.436,2.208,4.779,4.779,0,0,0,.43,2.127,3.243,3.243,0,0,0,1.157,1.334,2.969,2.969,0,0,0,1.632.463,2.848,2.848,0,0,0,1.594-.453,3.3,3.3,0,0,0,1.145-1.428,5.075,5.075,0,0,0,.454-2.167,5.316,5.316,0,0,0-.454-2.212,2.833,2.833,0,0,0-1.028-1.274,2.892,2.892,0,0,0-1.594-.412m0-.7a4.276,4.276,0,0,1,2.227.592,4.506,4.506,0,0,1,1.658,1.655,4.7,4.7,0,0,1,.577,2.358,4.61,4.61,0,0,1-1.292,3.383,4.436,4.436,0,0,1-3.294,1.306,4.351,4.351,0,0,1-3.536-1.571,4.638,4.638,0,0,1-1.067-3.068,4.722,4.722,0,0,1,.6-2.379,4.341,4.341,0,0,1,1.7-1.664,4.932,4.932,0,0,1,2.422-.612m-12.794-.159h.45l.063.3h5.5l.051-.3h.475l.952,2.644-.581.212a3.38,3.38,0,0,0-.994-1.488,2.4,2.4,0,0,0-1.472-.429,1.827,1.827,0,0,0-.445.028.175.175,0,0,0-.1.1,1.814,1.814,0,0,0-.028.45v6.242a2.39,2.39,0,0,0,.048.6.5.5,0,0,0,.139.238.507.507,0,0,0,.247.121,4.351,4.351,0,0,0,.7.041v.543H5356.4v-.543a4.361,4.361,0,0,0,.705-.039.5.5,0,0,0,.322-.244,1.6,1.6,0,0,0,.1-.668v-6.379a1.258,1.258,0,0,0-.028-.362.217.217,0,0,0-.11-.1.943.943,0,0,0-.33-.035,2.9,2.9,0,0,0-1.127.181,2.227,2.227,0,0,0-.795.612,3.748,3.748,0,0,0-.637,1.124l-.582-.212Zm-2.8.3h.465l.817,3.006-.594.167a10.082,10.082,0,0,0-.739-1.39,3.014,3.014,0,0,0-1.031-.906,2.823,2.823,0,0,0-1.361-.335,2.95,2.95,0,0,0-1.609.467,3.381,3.381,0,0,0-1.19,1.366,4.791,4.791,0,0,0,.007,4.095,3.436,3.436,0,0,0,1.249,1.4,3.171,3.171,0,0,0,1.7.489,3.657,3.657,0,0,0,1.757-.489,4.838,4.838,0,0,0,1.557-1.375l.518.354a5.433,5.433,0,0,1-2.4,1.988,4.683,4.683,0,0,1-1.743.315,4.259,4.259,0,0,1-3.411-1.551,4.612,4.612,0,0,1-1.084-3.068,4.733,4.733,0,0,1,.6-2.367,4.523,4.523,0,0,1,1.658-1.683,4.393,4.393,0,0,1,2.276-.625,3.961,3.961,0,0,1,1.209.178,4.324,4.324,0,0,1,1.132.573Zm-16.687,0h7.325l.846,2.364-.569.214a3.476,3.476,0,0,0-.467-.912,2.39,2.39,0,0,0-.606-.564,2.089,2.089,0,0,0-.711-.311,7.3,7.3,0,0,0-1.3-.077h-2.19v3.305h1.088a1.643,1.643,0,0,0,.909-.205,1.044,1.044,0,0,0,.424-.509,2.375,2.375,0,0,0,.091-.789v-.149h.634v3.953h-.634v-.341a2.206,2.206,0,0,0-.068-.653.948.948,0,0,0-.249-.379.966.966,0,0,0-.393-.243,2.839,2.839,0,0,0-.714-.063h-1.088v2.917a2.063,2.063,0,0,0,.041.556.284.284,0,0,0,.14.145,1.838,1.838,0,0,0,.531.044h1.355a4.64,4.64,0,0,0,1.771-.271,3.053,3.053,0,0,0,1.124-.828,4.761,4.761,0,0,0,.729-1.228l.589.208-1,2.82h-7.6v-.543h.258a1.6,1.6,0,0,0,.557-.057.557.557,0,0,0,.258-.271,1.512,1.512,0,0,0,.064-.557v-6.2a1.281,1.281,0,0,0-.084-.566.537.537,0,0,0-.288-.221,3.345,3.345,0,0,0-.765-.046Zm-5.886.7v3.781h1.391a4.016,4.016,0,0,0,1.476-.187,1.556,1.556,0,0,0,.7-.65,2.059,2.059,0,0,0,.278-1.082,1.9,1.9,0,0,0-.325-1.135,1.587,1.587,0,0,0-.879-.617,6.657,6.657,0,0,0-1.511-.11Zm-2.353-.7h3.559a7.972,7.972,0,0,1,2.234.208,2.714,2.714,0,0,1,1.269.841,2.289,2.289,0,0,1,.5,1.516,2.391,2.391,0,0,1-.381,1.355,2.6,2.6,0,0,1-1.115.974,5.468,5.468,0,0,1-2.064.289h-1.649v2.287a2.229,2.229,0,0,0,.058.655.5.5,0,0,0,.211.262,1.3,1.3,0,0,0,.547.074h.308v.543h-3.477v-.543h.212a1.616,1.616,0,0,0,.6-.074.454.454,0,0,0,.234-.229,1.592,1.592,0,0,0,.074-.595v-6.162a1.533,1.533,0,0,0-.068-.575.409.409,0,0,0-.225-.215,1.769,1.769,0,0,0-.618-.069h-.212Zm-24.879,4.535v3.052a2.028,2.028,0,0,0,.04.534.249.249,0,0,0,.168.141,2.1,2.1,0,0,0,.531.041h.394a6.241,6.241,0,0,0,1.622-.141,1.517,1.517,0,0,0,.773-.581,1.872,1.872,0,0,0,.32-1.129,2.008,2.008,0,0,0-.34-1.192,1.445,1.445,0,0,0-.8-.6,5.484,5.484,0,0,0-1.319-.123Zm-2.353,4.469v-.543h.212a1.17,1.17,0,0,0,.756-.158,1.068,1.068,0,0,0,.156-.7v-6.163a.706.706,0,0,0-.912-.9h-.212v-.542h3.477v.542h-.308a.891.891,0,0,0-.666.179,1.415,1.415,0,0,0-.15.808v2.305h1.648a6.953,6.953,0,0,1,1.975.2,2.289,2.289,0,0,1,1.1.824,2.475,2.475,0,0,1,.485,1.573,2.276,2.276,0,0,1-.527,1.521,2.592,2.592,0,0,1-1.175.837,8.333,8.333,0,0,1-2.3.214Zm-5.35-7.841-2.318,6.452a1.535,1.535,0,0,0-.108.422.381.381,0,0,0,.106.279.369.369,0,0,0,.2.119c.059.009.262.018.608.026v.543h-2.7v-.543a1.057,1.057,0,0,0,.718-.178,2.406,2.406,0,0,0,.432-.829l2.79-7.454h1.084l2.79,7.525a2.063,2.063,0,0,0,.4.734.792.792,0,0,0,.58.2h.148v.543h-3.213v-.543c.091-.008.227-.013.407-.013.329,0,.492-.128.492-.374a2.584,2.584,0,0,0-.18-.665Zm-13.124-1.163h7.324l.846,2.364-.568.214a3.536,3.536,0,0,0-.467-.912,2.382,2.382,0,0,0-.606-.564,2.079,2.079,0,0,0-.712-.311,7.275,7.275,0,0,0-1.3-.077h-2.19v3.305h1.088a1.638,1.638,0,0,0,.908-.205,1.047,1.047,0,0,0,.425-.509,2.375,2.375,0,0,0,.091-.789v-.149h.634v3.953h-.634v-.341a2.24,2.24,0,0,0-.068-.653.951.951,0,0,0-.25-.379.967.967,0,0,0-.391-.243,2.851,2.851,0,0,0-.715-.063h-1.088v2.917a2.072,2.072,0,0,0,.041.556.29.29,0,0,0,.139.145,1.856,1.856,0,0,0,.532.044h1.354a4.647,4.647,0,0,0,1.772-.271,3.069,3.069,0,0,0,1.124-.828,4.789,4.789,0,0,0,.729-1.228l.589.208-1,2.82h-7.6v-.543h.257a1.6,1.6,0,0,0,.558-.057.558.558,0,0,0,.258-.271,1.512,1.512,0,0,0,.064-.557v-6.2a1.274,1.274,0,0,0-.084-.566.532.532,0,0,0-.289-.221,3.319,3.319,0,0,0-.764-.046Zm-8.015-.3h.45l.064.3h5.5l.051-.3h.476l.952,2.644-.582.212a3.352,3.352,0,0,0-.994-1.488,2.4,2.4,0,0,0-1.471-.429,1.851,1.851,0,0,0-.446.028.178.178,0,0,0-.1.1,1.8,1.8,0,0,0-.029.45v6.242a2.407,2.407,0,0,0,.049.6.474.474,0,0,0,.386.359,4.341,4.341,0,0,0,.7.041v.543h-3.45v-.543a4.376,4.376,0,0,0,.705-.039.49.49,0,0,0,.321-.244,1.59,1.59,0,0,0,.1-.668v-6.379a1.243,1.243,0,0,0-.029-.362.212.212,0,0,0-.11-.1.934.934,0,0,0-.33-.035,2.9,2.9,0,0,0-1.126.181,2.235,2.235,0,0,0-.795.612,3.747,3.747,0,0,0-.637,1.124l-.582-.212Zm-5.983.859a3.177,3.177,0,0,0-1.736.461,3.243,3.243,0,0,0-1.163,1.353,5.016,5.016,0,0,0-.436,2.208,4.773,4.773,0,0,0,.43,2.127,3.251,3.251,0,0,0,1.156,1.334,2.972,2.972,0,0,0,1.633.463,2.849,2.849,0,0,0,1.593-.453,3.31,3.31,0,0,0,1.146-1.428,5.082,5.082,0,0,0,.454-2.167,5.324,5.324,0,0,0-.454-2.212,2.83,2.83,0,0,0-1.029-1.274,2.888,2.888,0,0,0-1.594-.412m0-.7a4.279,4.279,0,0,1,2.228.592,4.5,4.5,0,0,1,1.657,1.655,4.7,4.7,0,0,1,.577,2.358,4.611,4.611,0,0,1-1.291,3.383,4.439,4.439,0,0,1-3.295,1.306,4.353,4.353,0,0,1-3.536-1.571,4.638,4.638,0,0,1-1.067-3.068,4.717,4.717,0,0,1,.6-2.379,4.326,4.326,0,0,1,1.7-1.664,4.923,4.923,0,0,1,2.421-.612" fill="#d2d1d1"/>
    <rect id="Прямоугольник_48" data-name="Прямоугольник 48" width="137.246" height="0.536" transform="translate(5262.696 4935.348)" fill="#d2d1d1"/>
    <rect id="Прямоугольник_49" data-name="Прямоугольник 49" width="137.246" height="0.536" transform="translate(5262.696 4935.348)" fill="#d2d1d1"/>
    <path id="Контур_34" data-name="Контур 34" d="M5318.659,4881.133l-7.231-.014,5.858,4.239-2.247,6.872,5.84-4.26,5.842,4.26-2.247-6.872,5.857-4.239-7.23.014-2.222-6.881Z" fill="#d2d1d1"/>
    <path id="Контур_35" data-name="Контур 35" d="M5345.816,4881.133l-7.231-.014,5.857,4.239-2.247,6.872,5.841-4.26,5.841,4.26-2.247-6.872,5.856-4.239-7.23.014-2.221-6.881Z" fill="#d2d1d1"/>
    <path id="Контур_36" data-name="Контур 36" d="M5372.972,4881.133l-7.23-.014,5.857,4.239-2.248,6.872,5.842-4.26,5.84,4.26-2.247-6.872,5.858-4.239-7.23.014-2.221-6.881Z" fill="#d2d1d1"/>
    <path id="Контур_37" data-name="Контур 37" d="M5400.128,4881.133l-7.23-.014,5.857,4.239-2.248,6.872,5.842-4.26,5.841,4.26-2.248-6.872,5.858-4.239-7.231.014-2.221-6.881Z" fill="#d2d1d1"/>
  </g>
</svg>
