<svg xmlns="http://www.w3.org/2000/svg" width="140.665" height="57" viewBox="0 0 140.665 57">
  <g id="Сгруппировать_53" data-name="Сгруппировать 53" transform="translate(-4606.361 -12.396)">
    <path id="Контур_16" data-name="Контур 16" d="M4627.261,16.121a28.671,28.671,0,0,0-7.88,5.569,32.788,32.788,0,0,0-6.352,9.01,24.436,24.436,0,0,0-2.657,10.912,15.772,15.772,0,0,0,1.467,6.422,12.158,12.158,0,0,0,4.539,5.334,13.582,13.582,0,0,0,7.632,2.022,21.679,21.679,0,0,0,4.563-.486,7.041,7.041,0,0,1-2.816-1.39q-.412.031-.826.032a7.321,7.321,0,0,1-6.541-3.182,12.908,12.908,0,0,1-2.13-7.314,32.274,32.274,0,0,1,2.685-12.31,32.563,32.563,0,0,1,4.936-8.563,18.56,18.56,0,0,1,5.53-4.719,12.322,12.322,0,0,1,5.71-1.437,7.305,7.305,0,0,1,6.423,3.043,11.875,11.875,0,0,1,2.13,6.988,32.413,32.413,0,0,1-2.369,11.536,33.468,33.468,0,0,1-5.838,10.17,18.725,18.725,0,0,1-5.322,4.479q-.423.216-.848.4a9.71,9.71,0,0,0,3.926.728,25.988,25.988,0,0,0,12.662-12.255,28.562,28.562,0,0,0,3.677-13.3,14.932,14.932,0,0,0-1.715-6.9,11.761,11.761,0,0,0-4.737-5.025,13.887,13.887,0,0,0-6.949-1.7,20.845,20.845,0,0,0-8.9,1.943" fill="#fff"/>
    <path id="Контур_17" data-name="Контур 17" d="M4727.618,44.1c0-2.362-.942-3.544-2.8-3.544-1.125,0-2.658.76-4.584,2.265q-1.068.856-1.708,1.488c-.847.656-2.448,2.186-2.85,2.562a32.6,32.6,0,0,1-8.325,5.991c-2.673,1.224-3,.479-1-2.236l8.453-9.647h-5.063l-4.613,5.484a23.5,23.5,0,0,1-9.817,6.835l9.886-12.319h-5.3l-4.416,4.528a52.57,52.57,0,0,1-7.454,5.766q-5,3.439-5.359,1.449c-.253-1.322.675-2.771,2.757-4.374s2.405-2.433.957-2.532a3.694,3.694,0,0,0-2.706,1.176c-1.824,1.362-3.664,2.623-5.382,3.761-2.308,1.53-3.656,2.306-4.036,2.306a.226.226,0,0,1-.253-.169,4.56,4.56,0,0,1,.829-1.279l8.285-10.632H4677.8a109.289,109.289,0,0,1-7.214,8.283q-4.156,4.282-5.274,4.29c-.38,0-.577-.169-.577-.506a2.857,2.857,0,0,1,.577-1.112l8.114-10.955h-5.851l-4.335,5.67-.094.086a34.638,34.638,0,0,1-9.339,5.72q-3.99,1.832-.2-2.869l7.2-8.607h-5.3L4651.1,45.5a39.719,39.719,0,0,1-5.1,4.543c-4.121,2.973-10.827,4.5-15.8,3.36-2.058-.471-3.469-1.495-3.343-2.56.071-.589.6-1.091,1.416-1.446l-.012-.068c-1.623.115-3.084.67-2.939,2.144.156,1.584,2.228,3.014,5.182,3.411,5.216.7,11.559.156,15.894-2.768.892-.6,1.837-1.3,2.84-2.073-1.07,3.291-.276,5.254,2.3,4.936a19.972,19.972,0,0,0,9.219-4.337,4.427,4.427,0,0,0-.274,1.454c0,2.152,1.154,3.221,3.474,3.221,1.561,0,3.474-1.041,5.724-3.136.112,2.1.985,3.136,2.63,3.136,1.851,0,4.831-1.4,8.7-4.269a3.7,3.7,0,0,0,.419,3.355q3.333,2.468,13.192-5.556c-1.843,1.758-2.672,3.108-2.476,4.078.029,1.59.745,2.392,2.18,2.392,1.7.182,4.375-1.1,7.989-3.84-.76,2.616.155,3.91,2.77,3.91,5.153-1.066,10.709-6.551,14.61-10.231,1.874-1.536,3.3-2.381,4.292-2.511L4713.61,54.9h5.555l4.459-5.148a28.726,28.726,0,0,1,5.274-4.627,17.264,17.264,0,0,1,4.768-2.546,54.22,54.22,0,0,1-3.207,4.375c-1.786,2.25-2.672,4.064-2.672,5.442a2.784,2.784,0,0,0,.914,2.012,3.177,3.177,0,0,0,2.292.914q3.63,0,15.331-10.225c.463-.393.7-.717.7-1,0-.323-.21-.492-.618-.492-.225,0-.662.281-1.322.83q-10.506,8.693-13.108,8.705c-.38,0-.576-.14-.576-.421a2.526,2.526,0,0,1,.576-1.111l5.738-7.511a2.824,2.824,0,0,0,.689-1.687c0-1.238-.844-1.857-2.545-1.857-2.194,0-4.951,1.182-8.242,3.544" fill="#fff"/>
    <path id="Контур_18" data-name="Контур 18" d="M4613.5,41.5c4.3,6.131,9.552.482,14.422,7.073a8.713,8.713,0,0,0-5.421-7.292c-2.4-1-3.844-.421-7.158-1.43a8.893,8.893,0,0,1-3.12-1.653c.17.365,1.106,2.937,1.277,3.3m.758-5.979a15.612,15.612,0,0,1,1.57.24c3.95.69,6.756,1.96,8.736,3.99a20.029,20.029,0,0,1,3.528,5.93q.23.834.459,1.669a23.419,23.419,0,0,1,.534,3.1c2.155-5.191,1.475-9.321-2.686-13.976a20.2,20.2,0,0,0-10.221-5.949c-4.194-.98-5.423-2.019-9.749-5.562,1.419,4.01,2.143,10.156,7.829,10.553m-7.81-21.832c-.79,7.391,3.973,11.238,8.032,12.1a20.277,20.277,0,0,1,7.8,3.092,19.879,19.879,0,0,1,9.084,12.534,17,17,0,0,1-.8,9.023l.735-.866c4.345-7.366,3.482-15.345-1.613-22.043-6.573-8.641-19.259-6.573-23.049-15.127-.076.428-.137.86-.183,1.289" fill="#fff"/>
    <path id="Контур_19" data-name="Контур 19" d="M4667.953,65.462a6.444,6.444,0,0,0-.723.389,1.847,1.847,0,0,0-.646.851,1.506,1.506,0,0,0-.081.49,1.714,1.714,0,0,0,1.7,1.688,1.785,1.785,0,0,0,.751-.166,2.886,2.886,0,0,0,.821-.559c-.024-.041-.065-.116-.118-.223l-.75-1.461a4.815,4.815,0,0,0-.263-.44,1.6,1.6,0,0,0-.269-.3,2.164,2.164,0,0,0-.419-.269m.2-2.464a.87.87,0,0,0-.652.274,1.089,1.089,0,0,0,0,1.423.886.886,0,0,0,1.293,0,.953.953,0,0,0,.272-.694,1.008,1.008,0,0,0-.267-.724.857.857,0,0,0-.649-.279m1.87,2.1h2.22v.409h-.266a1.206,1.206,0,0,0-.389.041.407.407,0,0,0-.176.14.656.656,0,0,0-.11.3,5.043,5.043,0,0,1-.717,1.862,2,2,0,0,0,.318.542,1.509,1.509,0,0,0,.389.378.711.711,0,0,0,.357.094.573.573,0,0,0,.4-.149.461.461,0,0,0,.162-.349.477.477,0,0,0-.062-.261.761.761,0,0,0-.279-.2.577.577,0,0,1-.24-.195.433.433,0,0,1-.072-.241.41.41,0,0,1,.122-.308.432.432,0,0,1,.32-.119.754.754,0,0,1,.586.292,1.1,1.1,0,0,1,.248.738,1.241,1.241,0,0,1-.4.924,1.346,1.346,0,0,1-.973.393,1.492,1.492,0,0,1-.739-.2,2.261,2.261,0,0,1-.693-.662,3.766,3.766,0,0,1-.857.6,2.678,2.678,0,0,1-1.157.252,2.712,2.712,0,0,1-1.239-.277,2.111,2.111,0,0,1-.847-.747,1.889,1.889,0,0,1-.3-1.026,1.828,1.828,0,0,1,.25-.948,2.334,2.334,0,0,1,.747-.76,3.679,3.679,0,0,1,.9-.412,2.156,2.156,0,0,1-.6-.342,1.285,1.285,0,0,1-.315-.417,1.215,1.215,0,0,1-.109-.513,1.233,1.233,0,0,1,.443-.963,1.766,1.766,0,0,1,1.2-.441,1.653,1.653,0,0,1,1.145.4,1.237,1.237,0,0,1,.452.953,1.325,1.325,0,0,1-.185.686,1.509,1.509,0,0,1-.519.52,1.748,1.748,0,0,1-.552.219,2.292,2.292,0,0,1,.7.349,3.011,3.011,0,0,1,.588.628,5.8,5.8,0,0,1,.588,1.05,4.2,4.2,0,0,0,.461-1.526.28.28,0,0,0-.1-.246.775.775,0,0,0-.418-.077h-.286Zm53.259-2.444h2.56v.4h-.175a1.212,1.212,0,0,0-.436.057.34.34,0,0,0-.184.2,1.5,1.5,0,0,0-.042.443v1.851h3.447v-1.8a2.21,2.21,0,0,0-.024-.444.359.359,0,0,0-.162-.23.774.774,0,0,0-.381-.076h-.26v-.4h2.532v.4h-.229a.851.851,0,0,0-.377.06.331.331,0,0,0-.157.161,1.31,1.31,0,0,0-.046.441v4.519a1.5,1.5,0,0,0,.047.479.287.287,0,0,0,.19.145,3.03,3.03,0,0,0,.572.028v.4h-2.532v-.4h.185a1.544,1.544,0,0,0,.466-.046.236.236,0,0,0,.147-.151,2.27,2.27,0,0,0,.029-.5V66.124H4725v2.113a1.408,1.408,0,0,0,.05.48.277.277,0,0,0,.194.144,3.4,3.4,0,0,0,.593.028v.4h-2.56v-.4h.162a1.51,1.51,0,0,0,.463-.04.3.3,0,0,0,.147-.156,1.035,1.035,0,0,0,.055-.407V63.718a1.237,1.237,0,0,0-.05-.428.352.352,0,0,0-.156-.177.823.823,0,0,0-.355-.057h-.266Zm-5,3.71h2.047l-1.022-2.853Zm.826-3.71h.794l2.054,5.546a1.382,1.382,0,0,0,.307.552.613.613,0,0,0,.416.134h.1v.4h-2.359v-.4c.077-.006.15-.009.223-.009a.634.634,0,0,0,.3-.047.266.266,0,0,0,.137-.227,2.179,2.179,0,0,0-.133-.489l-.448-1.282h-2.392l-.516,1.433a1.1,1.1,0,0,0-.08.308.285.285,0,0,0,.049.166.3.3,0,0,0,.136.107.769.769,0,0,0,.276.036c.086,0,.156,0,.21,0v.4H4716.2v-.4a1.035,1.035,0,0,0,.4-.055.535.535,0,0,0,.211-.175,2.391,2.391,0,0,0,.239-.51Zm-6.78.516v2.785h1.025a2.98,2.98,0,0,0,1.087-.137,1.151,1.151,0,0,0,.518-.48,1.514,1.514,0,0,0,.2-.8,1.4,1.4,0,0,0-.239-.836,1.161,1.161,0,0,0-.647-.454,4.82,4.82,0,0,0-1.113-.082Zm-1.733-.516h2.621a5.876,5.876,0,0,1,1.646.153,2,2,0,0,1,.935.62,1.682,1.682,0,0,1,.368,1.116,1.761,1.761,0,0,1-.281,1,1.916,1.916,0,0,1-.82.716,4.02,4.02,0,0,1-1.521.213h-1.215v1.685a1.606,1.606,0,0,0,.043.482.369.369,0,0,0,.155.193.963.963,0,0,0,.4.055h.227v.4H4710.6v-.4h.156a1.2,1.2,0,0,0,.445-.055.336.336,0,0,0,.172-.168,1.178,1.178,0,0,0,.055-.439V63.689a1.127,1.127,0,0,0-.051-.424.3.3,0,0,0-.165-.158,1.3,1.3,0,0,0-.456-.051h-.156Zm-4.241.409a2.337,2.337,0,0,0-1.279.339,2.4,2.4,0,0,0-.857,1,3.7,3.7,0,0,0-.321,1.626,3.521,3.521,0,0,0,.316,1.566,2.4,2.4,0,0,0,.852.984,2.2,2.2,0,0,0,1.2.341,2.1,2.1,0,0,0,1.173-.334,2.438,2.438,0,0,0,.844-1.052,3.752,3.752,0,0,0,.335-1.6,3.924,3.924,0,0,0-.335-1.629,2.089,2.089,0,0,0-.758-.939,2.129,2.129,0,0,0-1.173-.3m0-.516a3.152,3.152,0,0,1,1.64.436,3.318,3.318,0,0,1,1.221,1.219,3.456,3.456,0,0,1,.425,1.737,3.394,3.394,0,0,1-.951,2.492,3.268,3.268,0,0,1-2.426.962,3.2,3.2,0,0,1-2.6-1.157,3.413,3.413,0,0,1-.786-2.26,3.482,3.482,0,0,1,.443-1.753A3.188,3.188,0,0,1,4704.572,63a3.628,3.628,0,0,1,1.784-.451m-9.424-.117h.332l.046.224h4.055l.037-.224h.351l.7,1.947-.429.157a2.465,2.465,0,0,0-.732-1.1,1.762,1.762,0,0,0-1.084-.316,1.305,1.305,0,0,0-.328.021.125.125,0,0,0-.074.074,1.327,1.327,0,0,0-.021.332v4.6a1.8,1.8,0,0,0,.035.445.352.352,0,0,0,.285.265,3.163,3.163,0,0,0,.517.03v.4h-2.542v-.4a3.294,3.294,0,0,0,.519-.028.372.372,0,0,0,.238-.181,1.172,1.172,0,0,0,.071-.492v-4.7a.97.97,0,0,0-.021-.267.162.162,0,0,0-.081-.072.681.681,0,0,0-.243-.026,2.142,2.142,0,0,0-.83.133,1.639,1.639,0,0,0-.586.451,2.767,2.767,0,0,0-.469.828l-.429-.157Zm-2.061.224h.342l.6,2.214-.437.123a7.376,7.376,0,0,0-.545-1.024,2.225,2.225,0,0,0-.759-.667,2.077,2.077,0,0,0-1-.247,2.177,2.177,0,0,0-1.185.344,2.491,2.491,0,0,0-.876,1.007,3.525,3.525,0,0,0,.005,3.015,2.537,2.537,0,0,0,.92,1.03,2.339,2.339,0,0,0,1.253.36,2.7,2.7,0,0,0,1.294-.36,3.57,3.57,0,0,0,1.147-1.014l.381.262a3.809,3.809,0,0,1-.638.741,3.749,3.749,0,0,1-1.126.723,3.463,3.463,0,0,1-1.284.232,3.134,3.134,0,0,1-2.512-1.143,3.391,3.391,0,0,1-.8-2.259,3.487,3.487,0,0,1,.442-1.744,3.332,3.332,0,0,1,1.221-1.239,3.23,3.23,0,0,1,1.676-.461,2.928,2.928,0,0,1,.891.131,3.184,3.184,0,0,1,.834.423Zm-12.291,0h5.4l.623,1.741-.419.158a2.59,2.59,0,0,0-.344-.672,1.737,1.737,0,0,0-.447-.415,1.53,1.53,0,0,0-.523-.229,5.345,5.345,0,0,0-.958-.057h-1.613v2.434h.8a1.208,1.208,0,0,0,.669-.151.768.768,0,0,0,.313-.374,1.767,1.767,0,0,0,.067-.582V64.4h.467v2.912h-.467v-.251a1.665,1.665,0,0,0-.05-.481.784.784,0,0,0-.473-.458,2.048,2.048,0,0,0-.526-.047h-.8v2.149a1.493,1.493,0,0,0,.03.409.206.206,0,0,0,.1.107,1.343,1.343,0,0,0,.391.033h1a3.432,3.432,0,0,0,1.305-.2,2.271,2.271,0,0,0,.828-.61,3.55,3.55,0,0,0,.537-.9l.433.153-.74,2.077h-5.6v-.4h.189a1.165,1.165,0,0,0,.411-.042.413.413,0,0,0,.19-.2,1.13,1.13,0,0,0,.047-.411V63.67a.952.952,0,0,0-.061-.417.4.4,0,0,0-.213-.163,2.452,2.452,0,0,0-.563-.034Zm-4.336.516v2.785h1.025a2.98,2.98,0,0,0,1.087-.137,1.151,1.151,0,0,0,.518-.48,1.518,1.518,0,0,0,.2-.8,1.4,1.4,0,0,0-.239-.836,1.161,1.161,0,0,0-.647-.454,4.82,4.82,0,0,0-1.113-.082Zm-1.733-.516h2.621a5.876,5.876,0,0,1,1.646.153,2,2,0,0,1,.935.62,1.682,1.682,0,0,1,.368,1.116,1.761,1.761,0,0,1-.281,1,1.913,1.913,0,0,1-.821.716,4.011,4.011,0,0,1-1.52.213h-1.215v1.685a1.606,1.606,0,0,0,.043.482.369.369,0,0,0,.155.193.963.963,0,0,0,.4.055h.228v.4h-2.562v-.4h.156a1.194,1.194,0,0,0,.445-.055.336.336,0,0,0,.172-.168,1.178,1.178,0,0,0,.055-.439V63.689a1.127,1.127,0,0,0-.051-.424.3.3,0,0,0-.165-.158,1.3,1.3,0,0,0-.456-.051h-.156ZM4658.187,66v2.248a1.478,1.478,0,0,0,.029.393.18.18,0,0,0,.124.1,1.527,1.527,0,0,0,.391.031h.29a4.578,4.578,0,0,0,1.195-.1,1.119,1.119,0,0,0,.569-.428,1.377,1.377,0,0,0,.236-.832,1.487,1.487,0,0,0-.25-.878,1.066,1.066,0,0,0-.588-.443,4,4,0,0,0-.972-.091Zm-1.733,3.292v-.4h.155a.87.87,0,0,0,.557-.116.787.787,0,0,0,.115-.516v-4.54a.519.519,0,0,0-.672-.661h-.155v-.4h2.56v.4h-.226a.655.655,0,0,0-.491.132,1.04,1.04,0,0,0-.11.6v1.7h1.214a5.122,5.122,0,0,1,1.454.148,1.68,1.68,0,0,1,.811.607,1.822,1.822,0,0,1,.358,1.158,1.681,1.681,0,0,1-.388,1.121,1.914,1.914,0,0,1-.865.616,6.144,6.144,0,0,1-1.7.158Zm-3.941-5.775-1.707,4.752a1.1,1.1,0,0,0-.08.31.277.277,0,0,0,.078.206.267.267,0,0,0,.146.088c.043.007.193.013.447.019v.4h-1.986v-.4a.782.782,0,0,0,.529-.131,1.782,1.782,0,0,0,.318-.61l2.055-5.491h.8l2.055,5.543a1.553,1.553,0,0,0,.292.54.583.583,0,0,0,.427.149h.109v.4h-2.366v-.4q.1-.009.3-.009c.242,0,.362-.095.362-.276a1.909,1.909,0,0,0-.133-.49Zm-9.667-.857h5.4l.623,1.741-.419.158a2.561,2.561,0,0,0-.344-.672,1.727,1.727,0,0,0-.446-.415,1.535,1.535,0,0,0-.524-.229,5.341,5.341,0,0,0-.958-.057h-1.613v2.434h.8a1.205,1.205,0,0,0,.669-.151.758.758,0,0,0,.313-.374,1.751,1.751,0,0,0,.067-.582V64.4h.467v2.912h-.467v-.251a1.61,1.61,0,0,0-.05-.481.69.69,0,0,0-.184-.279.7.7,0,0,0-.288-.179,2.058,2.058,0,0,0-.527-.047h-.8v2.149a1.5,1.5,0,0,0,.03.409.211.211,0,0,0,.1.107,1.343,1.343,0,0,0,.391.033h1a3.428,3.428,0,0,0,1.305-.2,2.265,2.265,0,0,0,.828-.61,3.535,3.535,0,0,0,.537-.9l.434.153-.741,2.077h-5.6v-.4h.19a1.165,1.165,0,0,0,.411-.042.415.415,0,0,0,.189-.2,1.123,1.123,0,0,0,.048-.411V63.67a.948.948,0,0,0-.062-.417.4.4,0,0,0-.213-.163,2.445,2.445,0,0,0-.563-.034Zm-5.9-.224h.331l.047.224h4.054l.038-.224h.35l.7,1.947-.429.157a2.469,2.469,0,0,0-.732-1.1,1.765,1.765,0,0,0-1.084-.316,1.292,1.292,0,0,0-.328.021.128.128,0,0,0-.075.074,1.409,1.409,0,0,0-.021.332v4.6a1.773,1.773,0,0,0,.036.445.352.352,0,0,0,.284.265,3.174,3.174,0,0,0,.517.03v.4h-2.541v-.4a3.305,3.305,0,0,0,.52-.028.369.369,0,0,0,.236-.181,1.174,1.174,0,0,0,.071-.492v-4.7a.911.911,0,0,0-.021-.267.158.158,0,0,0-.081-.072.667.667,0,0,0-.243-.026,2.142,2.142,0,0,0-.83.133,1.64,1.64,0,0,0-.585.451,2.726,2.726,0,0,0-.469.828l-.429-.157Zm-4.407.633a2.345,2.345,0,0,0-1.279.339,2.409,2.409,0,0,0-.857,1,3.7,3.7,0,0,0-.321,1.626,3.507,3.507,0,0,0,.317,1.566,2.385,2.385,0,0,0,.852.984,2.189,2.189,0,0,0,1.2.341,2.1,2.1,0,0,0,1.174-.334,2.437,2.437,0,0,0,.844-1.052,3.745,3.745,0,0,0,.334-1.6,3.916,3.916,0,0,0-.334-1.629,2.094,2.094,0,0,0-.758-.939,2.132,2.132,0,0,0-1.174-.3m0-.516a3.155,3.155,0,0,1,1.641.436,3.325,3.325,0,0,1,1.221,1.219,3.467,3.467,0,0,1,.425,1.737,3.4,3.4,0,0,1-.952,2.492,3.266,3.266,0,0,1-2.426.962,3.208,3.208,0,0,1-2.6-1.157,3.42,3.42,0,0,1-.786-2.26,3.472,3.472,0,0,1,.444-1.753A3.185,3.185,0,0,1,4630.754,63a3.628,3.628,0,0,1,1.784-.451" fill="#fff"/>
    <rect id="Прямоугольник_45" data-name="Прямоугольник 45" width="101.09" height="0.395" transform="translate(4629.06 59.125)" fill="#fff"/>
    <rect id="Прямоугольник_46" data-name="Прямоугольник 46" width="101.09" height="0.395" transform="translate(4629.06 59.125)" fill="#fff"/>
    <path id="Контур_20" data-name="Контур 20" d="M4670.28,19.193l-5.326-.01,4.315,3.122-1.655,5.062,4.3-3.138,4.3,3.138-1.655-5.062,4.314-3.122-5.326.01-1.636-5.068Z" fill="#fff"/>
    <path id="Контур_21" data-name="Контур 21" d="M4690.283,19.193l-5.326-.01,4.314,3.122-1.655,5.062,4.3-3.138,4.3,3.138-1.655-5.062,4.314-3.122-5.326.01-1.636-5.068Z" fill="#fff"/>
    <path id="Контур_22" data-name="Контур 22" d="M4710.285,19.193l-5.326-.01,4.314,3.122-1.655,5.062,4.3-3.138,4.3,3.138-1.655-5.062,4.314-3.122-5.326.01-1.636-5.068Z" fill="#fff"/>
    <path id="Контур_23" data-name="Контур 23" d="M4730.287,19.193l-5.325-.01,4.314,3.122-1.655,5.062,4.3-3.138,4.3,3.138L4734.57,22.3l4.315-3.122-5.327.01-1.635-5.068Z" fill="#fff"/>
  </g>
</svg>
