<svg xmlns="http://www.w3.org/2000/svg" width="68.21" height="111.978" viewBox="0 0 68.21 111.978">
  <g id="Сгруппировать_358" data-name="Сгруппировать 358" transform="translate(-5091.512 -3683.59)">
    <path id="Контур_113" data-name="Контур 113" d="M5156.152,3732.887c.269-.54.521-1.089.762-1.644.086-.2.162-.4.245-.6.149-.362.3-.725.434-1.093.088-.239.169-.481.252-.721.117-.338.232-.677.339-1.02.079-.256.153-.514.227-.772.1-.338.188-.677.275-1.019q.1-.393.188-.79c.079-.348.151-.7.219-1.051.051-.262.1-.524.146-.787.062-.37.115-.743.166-1.117.033-.251.07-.5.1-.752.047-.417.08-.838.111-1.259.016-.214.039-.426.051-.64.035-.638.056-1.28.056-1.927a34.105,34.105,0,0,0-67.817-5.194,34.364,34.364,0,0,0-.393,5.194c0,.647.021,1.289.057,1.927.012.214.034.426.05.64.032.421.065.842.112,1.259.028.252.065.5.1.752.05.374.1.747.165,1.117.045.263.095.525.146.787.068.352.14.7.219,1.051q.09.4.189.79c.086.342.178.681.274,1.019.074.258.148.516.228.772.106.343.221.682.338,1.02.083.24.164.482.253.721.137.368.284.731.434,1.093.082.2.159.4.245.6q.36.833.762,1.644l30.534,62.681Z" fill="#a46a37"/>
    <g id="Сгруппировать_191" data-name="Сгруппировать 191">
      <path id="Контур_114" data-name="Контур 114" d="M5111.146,3727.487c4.3,6.135,9.558.482,14.431,7.078a8.716,8.716,0,0,0-5.424-7.3c-2.4-1-3.847-.421-7.163-1.431a8.894,8.894,0,0,1-3.122-1.654c.17.366,1.107,2.938,1.278,3.3m.759-5.983a15.857,15.857,0,0,1,1.57.241c3.954.69,6.761,1.961,8.742,3.992a20.023,20.023,0,0,1,3.53,5.934q.231.834.46,1.67a23.443,23.443,0,0,1,.534,3.107c2.157-5.194,1.476-9.327-2.688-13.985a20.22,20.22,0,0,0-10.227-5.953c-4.2-.981-5.427-2.021-9.756-5.566,1.42,4.013,2.145,10.163,7.835,10.56m-7.815-21.846c-.791,7.4,3.975,11.246,8.036,12.106a20.3,20.3,0,0,1,7.8,3.094,19.9,19.9,0,0,1,9.089,12.542,17,17,0,0,1-.8,9.028l.736-.866c4.347-7.371,3.484-15.355-1.614-22.056-6.578-8.647-19.272-6.578-23.065-15.138-.075.429-.136.861-.182,1.29" fill="#fff"/>
      <path id="Контур_115" data-name="Контур 115" d="M5147.228,3713.881c0-.031,0-.062,0-.093a14.949,14.949,0,0,0-1.716-6.9,11.773,11.773,0,0,0-4.74-5.029c-.192-.108-.4-.186-.6-.284-.067-.034-.136-.064-.2-.1a14.154,14.154,0,0,0-6.151-1.324,20.858,20.858,0,0,0-8.906,1.944,28.656,28.656,0,0,0-7.885,5.573,32.814,32.814,0,0,0-6.357,9.015,24.467,24.467,0,0,0-2.657,10.919,15.782,15.782,0,0,0,1.467,6.427,12.087,12.087,0,0,0,9.285,7.124c.172.031.348.056.523.081.129.017.259.032.39.047.267.029.535.055.809.071.1.006.2.008.3.012.21.008.416.025.631.025.041,0,.082,0,.124,0s.075,0,.113,0a22.822,22.822,0,0,0,12.277-3.66,26.971,26.971,0,0,0,9.611-10.632,36.453,36.453,0,0,0,1.942-4.336,23.819,23.819,0,0,0,1.738-8.824C5147.231,3713.919,5147.228,3713.9,5147.228,3713.881Zm-24.706,25.66c-.146,0-.282-.013-.424-.019-.235-.008-.466-.022-.691-.044-.273-.029-.54-.068-.8-.119l-.17-.035a6.836,6.836,0,0,1-4.4-2.963,12.915,12.915,0,0,1-2.131-7.319,36.656,36.656,0,0,1,7.626-20.886,18.583,18.583,0,0,1,5.534-4.722,12.328,12.328,0,0,1,5.713-1.438,10.228,10.228,0,0,1,1.8.16l-.014.016a6.872,6.872,0,0,1,4.637,3.009,12.879,12.879,0,0,1,2.125,7.112,32.693,32.693,0,0,1-2.364,11.284,33.5,33.5,0,0,1-5.842,10.176,18.735,18.735,0,0,1-5.325,4.482q-.423.216-.849.4l.032.01A12.02,12.02,0,0,1,5122.522,3739.541Z" fill="#fff"/>
    </g>
  </g>
</svg>
