<svg fill = "#c18b52" id="Capa_1" enable-background="new 0 0 512 512" height="512" viewBox="0 0 512 512" width="512" xmlns="http://www.w3.org/2000/svg"><g><path d="m165 242.388c-54.086 0-98.089 44.002-98.089 98.089s44.003 98.089 98.089 98.089 98.089-44.003 98.089-98.089-44.003-98.089-98.089-98.089zm0 166.178c-37.544 0-68.089-30.545-68.089-68.089s30.545-68.089 68.089-68.089 68.089 30.544 68.089 68.089-30.545 68.089-68.089 68.089z"/><path d="m165 220.099c43.319 0 78.563-35.243 78.563-78.563s-35.243-78.563-78.563-78.563-78.563 35.243-78.563 78.563c.001 43.319 35.244 78.563 78.563 78.563zm0-127.126c26.777 0 48.563 21.785 48.563 48.563 0 26.777-21.785 48.563-48.563 48.563s-48.563-21.785-48.563-48.563c.001-26.778 21.786-48.563 48.563-48.563z"/><circle cx="165" cy="141.536" r="15"/><circle cx="165" cy="340.477" r="15"/><circle cx="64.585" cy="447" r="15"/><circle cx="265" cy="447" r="15"/><circle cx="64.585" cy="65" r="15"/><circle cx="265" cy="65" r="15"/><path d="m59.523 512h210.953c32.822 0 59.524-26.702 59.524-59.523v-392.954c0-32.821-26.702-59.523-59.523-59.523h-210.954c-32.821 0-59.523 26.702-59.523 59.523v392.953c0 32.822 26.702 59.524 59.523 59.524zm-29.523-452.477c0-16.279 13.244-29.523 29.523-29.523h210.953c16.28 0 29.524 13.244 29.524 29.523v392.953c0 16.28-13.244 29.524-29.523 29.524h-210.954c-16.279 0-29.523-13.244-29.523-29.523z"/><path d="m360.764 301.89c5.859 5.853 15.357 5.852 21.213-.01 12.251-12.263 18.998-28.557 18.998-45.88s-6.747-33.617-18.998-45.88c-5.855-5.86-15.352-5.866-21.213-.01-5.86 5.855-5.865 15.353-.01 21.213 6.591 6.598 10.221 15.361 10.221 24.677s-3.63 18.079-10.221 24.677c-5.856 5.861-5.851 15.358.01 21.213z"/><path d="m421.231 170.861c-5.857-5.86-15.354-5.861-21.213-.005s-5.862 15.354-.006 21.213c17.072 17.081 26.475 39.786 26.475 63.931s-9.402 46.85-26.475 63.931c-5.856 5.859-5.854 15.357.006 21.213 5.858 5.855 15.355 5.855 21.213-.005 22.735-22.747 35.256-52.983 35.256-85.139s-12.52-62.392-35.256-85.139z"/><path d="m439.266 131.609c-5.859 5.857-5.86 15.354-.004 21.213 27.56 27.57 42.738 64.212 42.738 103.178s-15.178 75.608-42.738 103.178c-5.856 5.859-5.855 15.356.004 21.213 5.857 5.856 15.355 5.856 21.213-.003 33.223-33.236 51.521-77.411 51.521-124.388s-18.298-91.152-51.521-124.388c-5.857-5.859-15.355-5.86-21.213-.003z"/></g></svg>