<svg xmlns="http://www.w3.org/2000/svg" width="113.889" height="62.23" viewBox="0 0 113.889 62.23">
  <g id="Сгруппировать_288" data-name="Сгруппировать 288" transform="translate(-6767.483 -41.462)">
    <g id="Сгруппировать_287" data-name="Сгруппировать 287">
      <path id="Контур_172" data-name="Контур 172" d="M6880.026,43.126a5.139,5.139,0,0,0-3.78-1.664h-1.52a7.593,7.593,0,0,0-7.607,6.969l-1.646,18.747a3.176,3.176,0,0,1-3.181,2.914H6848.05a8.286,8.286,0,0,0-8.277,8.277v.822a5.006,5.006,0,0,0,5,5h3.053l-3.006,9.817-.007.022-2.3,7.5a1.669,1.669,0,1,0,3.191.977l1.938-6.328h22.882l1.938,6.328a1.668,1.668,0,1,0,3.19-.977L6870.2,83.725a12.219,12.219,0,0,0,2.75-1.154,1.668,1.668,0,0,0-1.659-2.895,8.933,8.933,0,0,1-4.436,1.179h-22.081a1.666,1.666,0,0,1-1.663-1.664v-.822a4.945,4.945,0,0,1,4.939-4.94h14.242a6.5,6.5,0,0,0,6.506-5.959l1.645-18.747a4.276,4.276,0,0,1,4.283-3.924h1.521a1.788,1.788,0,0,1,1.782,1.945l-2.278,25.961a9.034,9.034,0,0,1-.371,1.883,1.668,1.668,0,0,0,3.186.992,12.428,12.428,0,0,0,.509-2.583l2.278-25.961A5.143,5.143,0,0,0,6880.026,43.126Zm-28.711,41.065h15.538l2.651,8.655h-20.839Z" fill="#c18b52"/>
      <path id="Контур_173" data-name="Контур 173" d="M6800.805,70.092h-14.242a3.175,3.175,0,0,1-3.181-2.914l-1.645-18.747a7.594,7.594,0,0,0-7.607-6.968h-1.521a5.126,5.126,0,0,0-5.106,5.573L6769.781,73a12.274,12.274,0,0,0,8.873,10.73l-5.453,17.807a1.669,1.669,0,0,0,3.191.977l1.937-6.329h22.883l1.938,6.329a1.668,1.668,0,0,0,3.19-.977l-2.3-7.5-.007-.022-3.006-9.818h3.053a5.006,5.006,0,0,0,5-5v-.822A8.286,8.286,0,0,0,6800.805,70.092Zm-21.454,22.754,2.65-8.655h15.539l2.65,8.655Zm26.394-13.655a1.666,1.666,0,0,1-1.663,1.664H6782a9.167,9.167,0,0,1-1.053-.063h0a8.873,8.873,0,0,1-7.841-8.087l-2.278-25.96a1.79,1.79,0,0,1,1.782-1.946h1.521a4.277,4.277,0,0,1,4.283,3.924l1.645,18.747h0a6.5,6.5,0,0,0,6.5,5.96h14.242a4.946,4.946,0,0,1,4.94,4.94v.822Z" fill="#c18b52"/>
      <path id="Контур_174" data-name="Контур 174" d="M6837.1,98.189a6.008,6.008,0,0,0-5.813-4.5h-1.033V63.324h20.543a3.921,3.921,0,0,0,3.841-4.711,7.567,7.567,0,0,0-7.385-6.021h-34.684a1.669,1.669,0,0,0,0,3.337h34.684a4.219,4.219,0,0,1,4.117,3.356.586.586,0,0,1-.573.7h-52.73a.586.586,0,0,1-.572-.7,4.218,4.218,0,0,1,4.117-3.356h3.132a1.669,1.669,0,1,0,0-3.337h-3.132a7.566,7.566,0,0,0-7.385,6.021,3.921,3.921,0,0,0,3.84,4.711h20.544V93.695h-1.033a6.008,6.008,0,0,0-5.813,4.494l-.392,1.5a3.193,3.193,0,0,0,3.091,4H6834.4a3.194,3.194,0,0,0,3.091-4Zm-15.153-34.865h4.971V93.695h-4.971Zm-7.3,37.031.345-1.326a2.672,2.672,0,0,1,2.584-2h13.709a2.672,2.672,0,0,1,2.584,2l.345,1.326Z" fill="#c18b52"/>
    </g>
  </g>
</svg>
