<svg xmlns="http://www.w3.org/2000/svg" width="98.953" height="59.105" viewBox="0 0 98.953 59.105">
  <g id="Сгруппировать_286" data-name="Сгруппировать 286" transform="translate(-7282.782 -43.025)">
    <path id="Контур_170" data-name="Контур 170" d="M7376.787,54.778v-.209a11.556,11.556,0,0,0-11.544-11.544h-65.969a11.558,11.558,0,0,0-11.545,11.544v.209a6.607,6.607,0,0,0-4.947,6.388V85.9a1.649,1.649,0,0,0,1.649,1.65h18.141v-3.3h-6.6V72.711h23.09v-3.3h-23.09V67.763a3.3,3.3,0,0,1,3.3-3.3h65.969a3.3,3.3,0,0,1,3.3,3.3v1.649H7343.8v3.3h24.738V84.255h-6.6v3.3h18.142a1.649,1.649,0,0,0,1.649-1.65h0V61.166A6.608,6.608,0,0,0,7376.787,54.778Zm-84.11,29.477h-6.6V61.328a3.408,3.408,0,0,1,2.684-3.4,3.3,3.3,0,0,1,3.913,3.243V84.255Zm6.6-23.089a6.547,6.547,0,0,0-3.3.888v-.888a6.608,6.608,0,0,0-4.947-6.388v-.209a8.256,8.256,0,0,1,8.246-8.246h6.6v1.649a4.954,4.954,0,0,1-4.948,4.948h-3.3v3.3h3.3a4.954,4.954,0,0,1,4.948,4.948h-6.6Zm8.246-4.942a8.323,8.323,0,0,0-1.655-1.655h0a8.323,8.323,0,0,0,1.655-1.655h0a8.323,8.323,0,0,0,1.655,1.655h0a8.323,8.323,0,0,0-1.655,1.655Zm1.649,4.942h0a4.954,4.954,0,0,1,4.948-4.948h3.3v-3.3h-3.3a4.954,4.954,0,0,1-4.948-4.948V46.323h21.44v1.649a4.953,4.953,0,0,1-4.948,4.948h-3.3v3.3h3.3a4.953,4.953,0,0,1,4.948,4.948h-21.44Zm23.089-4.942a8.311,8.311,0,0,0-1.655-1.655h0a8.311,8.311,0,0,0,1.655-1.655h0a8.326,8.326,0,0,0,1.655,1.655h0a8.326,8.326,0,0,0-1.655,1.655Zm1.65,4.942h0a4.953,4.953,0,0,1,4.947-4.948h3.3v-3.3h-3.3a4.952,4.952,0,0,1-4.947-4.948V46.323h21.439v1.649a4.953,4.953,0,0,1-4.947,4.948h-3.3v3.3h3.3a4.953,4.953,0,0,1,4.947,4.948h-21.439ZM7357,56.224a8.313,8.313,0,0,0-1.655-1.655h0A8.313,8.313,0,0,0,7357,52.914h0a8.311,8.311,0,0,0,1.655,1.655h0A8.311,8.311,0,0,0,7357,56.224Zm11.544,4.942v.888a6.544,6.544,0,0,0-3.3-.888h-6.6a4.953,4.953,0,0,1,4.948-4.948h3.3v-3.3h-3.3a4.953,4.953,0,0,1-4.948-4.948V46.323h6.6a8.255,8.255,0,0,1,8.246,8.246v.209A6.609,6.609,0,0,0,7368.541,61.166Zm9.9,23.089h-6.6V61.328a3.409,3.409,0,0,1,2.683-3.4,3.3,3.3,0,0,1,3.914,3.243V84.255Z" fill="#c18b52"/>
    <path id="Контур_171" data-name="Контур 171" d="M7305.871,85.638v14.843a1.649,1.649,0,0,0,1.649,1.649H7357a1.648,1.648,0,0,0,1.649-1.649h0V85.638a1.649,1.649,0,0,0-1.649-1.65h-15.731a6.583,6.583,0,0,0-.762-7.66V70.795a1.649,1.649,0,0,0-1.649-1.65h-6.6a1.65,1.65,0,0,0-1.649,1.649h0v5.533a6.641,6.641,0,0,0-.691.941L7328.786,75a1.651,1.651,0,0,0-1.475-.912h-3.3a1.649,1.649,0,0,0-1.475.912l-3.3,6.6a1.644,1.644,0,0,0,0,1.475l.456.911H7307.52a1.649,1.649,0,0,0-1.649,1.65Zm27.487-7.406a1.649,1.649,0,0,0,.55-1.229V72.444h3.3V77a1.651,1.651,0,0,0,.549,1.229,3.3,3.3,0,1,1-4.657.26A3.583,3.583,0,0,1,7333.358,78.232Zm-8.326-.841h1.259l2.474,4.948-.824,1.649h-4.559l-.824-1.649Zm-15.863,9.9h46.178V98.831h-46.178Z" fill="#c18b52"/>
  </g>
</svg>
