<svg xmlns="http://www.w3.org/2000/svg" width="85.384" height="85.51" viewBox="0 0 85.384 85.51">
  <g id="Сгруппировать_238" data-name="Сгруппировать 238" transform="translate(-5681.078 -2322.779)">
    <path id="Контур_135" data-name="Контур 135" d="M5752.042,2366.83a1.692,1.692,0,0,0-1.691,1.69v3.587a1.69,1.69,0,1,0,3.381,0v-3.587A1.691,1.691,0,0,0,5752.042,2366.83Z" fill="#c18b52"/>
    <path id="Контур_136" data-name="Контур 136" d="M5753.732,2356.552a1.69,1.69,0,0,0-3.381,0v3.514a1.69,1.69,0,1,0,3.381,0Z" fill="#c18b52"/>
    <path id="Контур_137" data-name="Контур 137" d="M5764.771,2400.446h-11.039v-19.885a1.69,1.69,0,0,0-3.381,0V2399.9l-4.056.549h-.011a1.663,1.663,0,0,0-.414.058l-30.7,4.159v-78.318l35.18,3.56V2348.1a1.69,1.69,0,0,0,3.381,0v-19.72a1.684,1.684,0,0,0-1.521-1.689l-38.556-3.9a1.554,1.554,0,0,0-.184-.01,1.694,1.694,0,0,0-1.681,1.7v2.175h-16.209a1.691,1.691,0,0,0-1.69,1.69v72.1h-11.123a1.69,1.69,0,0,0,0,3.381h29.022v2.772a1.692,1.692,0,0,0,1.691,1.69,1.758,1.758,0,0,0,.228-.016l32.784-4.446h18.278a1.69,1.69,0,1,0,0-3.381Zm-52.981-66.741H5702.4a1.692,1.692,0,0,0-1.691,1.69v65.051h-3.441v-70.415h14.519Zm-7.7,3.38h7.7v63.361h-7.7Z" fill="#c18b52"/>
    <path id="Контур_138" data-name="Контур 138" d="M5717.015,2365.537a4.853,4.853,0,0,0,4.846,4.848h0a4.848,4.848,0,1,0-4.847-4.848Zm3.38,0a1.467,1.467,0,1,1,1.466,1.466A1.468,1.468,0,0,1,5720.4,2365.537Z" fill="#c18b52"/>
  </g>
</svg>
