<svg xmlns="http://www.w3.org/2000/svg" width="91.726" height="91.726" viewBox="0 0 91.726 91.726">
  <g id="Сгруппировать_236" data-name="Сгруппировать 236" transform="translate(-4714.004 -2317.3)">
    <g id="Сгруппировать_229" data-name="Сгруппировать 229">
      <g id="Сгруппировать_228" data-name="Сгруппировать 228">
        <path id="Контур_131" data-name="Контур 131" d="M4804.168,2325.343a1.562,1.562,0,0,0,1.562-1.562v-4.919a1.562,1.562,0,0,0-1.562-1.562h-70.7a1.563,1.563,0,0,0-1.563,1.562v70.7a1.563,1.563,0,0,0,1.563,1.562h70.7a1.563,1.563,0,0,0,1.563-1.562v-60.575a1.563,1.563,0,1,0-3.125,0v26.768H4796.4a1.563,1.563,0,0,0,0,3.125h6.205V2388h-44.638v-7.56a1.563,1.563,0,0,0-3.125,0V2388h-19.814v-67.577h19.814v48.768a1.563,1.563,0,1,0,3.125,0v-10.311h27.809a1.563,1.563,0,1,0,0-3.125h-27.809v-35.332H4802.6v3.356A1.563,1.563,0,0,0,4804.168,2325.343Z" fill="#c18b52"/>
      </g>
    </g>
    <g id="Сгруппировать_231" data-name="Сгруппировать 231">
      <g id="Сгруппировать_230" data-name="Сгруппировать 230">
        <path id="Контур_132" data-name="Контур 132" d="M4727.2,2326.317l-5.156-8.28a1.561,1.561,0,0,0-2.652,0l-5.156,8.28a1.562,1.562,0,0,0,1.326,2.388h3.594v6.533a1.562,1.562,0,1,0,3.124,0v-6.533h3.594a1.563,1.563,0,0,0,1.326-2.388Zm-8.824-.737,2.342-3.762,2.342,3.762Z" fill="#c18b52"/>
      </g>
    </g>
    <g id="Сгруппировать_233" data-name="Сгруппировать 233">
      <g id="Сгруппировать_232" data-name="Сгруппировать 232">
        <path id="Контур_133" data-name="Контур 133" d="M4727.243,2380.525a1.562,1.562,0,0,0-1.366-.8h-3.593V2339.4a1.563,1.563,0,0,0-3.125,0v40.317h-3.593a1.562,1.562,0,0,0-1.326,2.388l5.156,8.281a1.562,1.562,0,0,0,2.652,0l5.156-8.281A1.561,1.561,0,0,0,4727.243,2380.525Zm-6.521,6.083-2.342-3.762h4.684Z" fill="#c18b52"/>
      </g>
    </g>
    <g id="Сгруппировать_235" data-name="Сгруппировать 235">
      <g id="Сгруппировать_234" data-name="Сгруппировать 234">
        <path id="Контур_134" data-name="Контур 134" d="M4804.993,2400.982l-8.28-5.156a1.563,1.563,0,0,0-2.388,1.327v3.593h-51.017v-3.593a1.563,1.563,0,0,0-2.388-1.327l-8.28,5.156a1.561,1.561,0,0,0,0,2.652l8.28,5.156a1.563,1.563,0,0,0,2.388-1.327v-3.593h51.017v3.593a1.562,1.562,0,0,0,2.388,1.327l8.28-5.156a1.562,1.562,0,0,0,0-2.652Zm-64.809,3.668-3.762-2.342,3.762-2.342Zm57.266,0v-4.684l3.762,2.342Z" fill="#c18b52"/>
      </g>
    </g>
  </g>
</svg>
