<svg xmlns="http://www.w3.org/2000/svg" width="106.704" height="75.726" viewBox="0 0 106.704 75.726">
  <path id="Контур_130" data-name="Контур 130" d="M5317.682,2382.094h-1.721v-13.768a6.893,6.893,0,0,0-6.884-6.884v-29.258a6.893,6.893,0,0,0-6.884-6.884h-72.284a6.893,6.893,0,0,0-6.884,6.884v29.258a6.893,6.893,0,0,0-6.884,6.884v13.768h-1.721a1.721,1.721,0,0,0-1.721,1.721v6.884a1.72,1.72,0,0,0,1.721,1.721h1.721v6.885a1.721,1.721,0,0,0,1.721,1.721h5.163a1.72,1.72,0,0,0,1.687-1.384l1.445-7.222h79.788l1.445,7.222a1.719,1.719,0,0,0,1.687,1.384h5.163a1.721,1.721,0,0,0,1.721-1.721v-6.885h1.721a1.72,1.72,0,0,0,1.721-1.721v-6.884A1.721,1.721,0,0,0,5317.682,2382.094Zm-91.215-49.91a3.447,3.447,0,0,1,3.442-3.442h72.284a3.446,3.446,0,0,1,3.442,3.442v29.258h-3.442v-6.884a6.894,6.894,0,0,0-6.884-6.885h-20.653a6.894,6.894,0,0,0-6.884,6.885v6.884h-3.442v-6.884a6.894,6.894,0,0,0-6.884-6.885h-20.653a6.894,6.894,0,0,0-6.884,6.885v6.884h-3.442Zm72.284,22.374v6.884h-27.537v-6.884a3.448,3.448,0,0,1,3.442-3.443h20.653A3.448,3.448,0,0,1,5298.751,2354.558Zm-37.863,0v6.884h-27.537v-6.884a3.448,3.448,0,0,1,3.442-3.443h20.653A3.448,3.448,0,0,1,5260.888,2354.558Zm-41.305,13.768a3.446,3.446,0,0,1,3.442-3.442h86.052a3.446,3.446,0,0,1,3.442,3.442v13.768h-92.936Zm2.031,29.258h-2.031v-5.164h3.063Zm90.905,0h-2.031l-1.032-5.164h3.063Zm3.442-8.606h-99.82v-3.442h99.82Z" transform="translate(-5212.699 -2325.3)" fill="#c18b52"/>
</svg>
