<svg xmlns="http://www.w3.org/2000/svg" width="23.317" height="19.711" viewBox="0 0 23.317 19.711">
  <path id="Контур_41" data-name="Контур 41" d="M5361.751,5091.621l-19.8,7.56c-1.026.391-1.166.975-1.158,1.289.012.382.239.9,1.256,1.228l4.119,1.179,2.229,6.371a1.875,1.875,0,0,0,1.737,1.378,2.056,2.056,0,0,0,1.394-.6l2.565-2.361,3.76,3.026a2.076,2.076,0,0,0,1.266.476,1.778,1.778,0,0,0,1.694-1.578l3.244-16.022a1.874,1.874,0,0,0-.3-1.588A1.714,1.714,0,0,0,5361.751,5091.621Zm-12.363,16.555-1.926-5.509,8.153-4.166-5.088,5.4a.673.673,0,0,0-.157.289Zm1.063,1.084.933-3.77,1.687,1.36Zm12.335-15.944-3.244,16.021c-.071.344-.226.541-.426.541a.828.828,0,0,1-.469-.2l-6.7-5.4,7.165-7.613a.647.647,0,0,0-.765-1.019l-11.75,6-4.29-1.226,19.9-7.6a1.055,1.055,0,0,1,.337-.077l.231-.01.028.231A1.107,1.107,0,0,1,5362.786,5093.316Z" transform="translate(-5340.79 -5091.461)" fill="#c18b52"/>
</svg>
